<?xml version="1.0" standalone="no"?>
<!DOCTYPE svg PUBLIC "-//W3C//DTD SVG 20010904//EN"
 "http://www.w3.org/TR/2001/REC-SVG-20010904/DTD/svg10.dtd">
<svg version="1.0" xmlns="http://www.w3.org/2000/svg"
 width="75.000000pt" height="75.000000pt" viewBox="0 0 75.000000 75.000000"
 preserveAspectRatio="xMidYMid meet">

<g transform="translate(0.000000,75.000000) scale(0.100000,-0.100000)"
fill="#000000" stroke="none">
<path d="M551 474 c0 -11 3 -14 6 -6 3 7 2 16 -1 19 -3 4 -6 -2 -5 -13z"/>
<path d="M343 459 c-47 -17 -34 -29 33 -29 46 0 65 3 58 10 -17 17 -68 28 -91
19z"/>
<path d="M284 363 c7 -28 48 -73 67 -73 5 0 9 12 9 28 0 21 -2 24 -10 12 -6
-9 -10 -10 -10 -3 0 12 -46 63 -57 63 -3 0 -2 -12 1 -27z"/>
<path d="M433 362 c-13 -12 -23 -28 -23 -35 0 -7 -4 -6 -10 3 -8 12 -10 9 -10
-13 0 -21 4 -28 16 -25 24 4 56 51 52 74 -3 18 -4 18 -25 -4z"/>
</g>
</svg>
